<?xml version="1.0" encoding="utf-8"?>
<!-- Generator: Adobe Illustrator 23.1.0, SVG Export Plug-In . SVG Version: 6.00 Build 0)  -->
<svg version="1.1" xmlns="http://www.w3.org/2000/svg" xmlns:xlink="http://www.w3.org/1999/xlink" x="0px" y="0px"
	 viewBox="0 0 1000 1000" style="enable-background:new 0 0 1000 1000;" xml:space="preserve">
<style type="text/css">
	.st0{fill:#3762F3;}
	.st1{fill:#FEFEFE;}
	.st2{fill:#3763F3;}
</style>
<g id="Capa_2">
	<circle class="st0" cx="500" cy="500" r="500"/>
</g>
<g id="Capa_1">
	<path class="st1" d="M461.09,326.26c10.89-18.64,24.18-34.34,39.19-48.63c21.29-20.26,45.36-35.88,73.88-44
		c15.42-4.39,31.09-6.09,46.85-2.51c22.08,5.02,34.98,24.09,32.34,46.48c-0.63,5.34-1.59,10.55-3.48,15.51
		c-1.88,4.95-4.3,9.69-6.74,15.1c5.51-0.88,10.76-1.86,16.04-2.55c44.72-5.84,88.46-3.23,129.77,16.67
		c27.79,13.38,48.1,34.01,53.91,65.22c6.79,36.5-4.46,67.39-33.19,91.32c-23.74,19.78-51.93,29.14-81.91,34.04
		c-10.19,1.66-20.43,2.99-30.76,2.91c-3.31-0.03-3.25,2.23-3.77,4.14c-5.71,21.2-10.3,42.65-14.2,64.24
		c-2.16,11.94-3.9,23.95-5.8,35.94c-1.04,6.53,0.8,12.93,0.95,19.41c0.06,2.74,2.33,2.44,4.09,2.35c8.98-0.45,17.95-0.99,26.92-1.49
		c20.11-1.13,40.14-3.61,60.32-3.35c7.85,0.1,15.6,0.94,23.08,3.54c20.22,7.01,29.65,24.11,24.75,45
		c-3.6,15.35-11.36,28.77-20.14,41.54c-15.78,22.94-34.5,43.09-57.38,59.27c-10.47,7.41-22.44,11.43-33.96,16.51
		c-34.55,15.23-71.06,22.83-108.22,28.12c-30.07,4.28-60.23,7.03-90.57,5.82c-31.09-1.25-61.95-4.76-92.51-11.11
		C358.8,815.03,309,798.72,262.28,773.87c-43.49-23.13-82.2-52.46-112.72-91.64c-6.96-8.93-13.28-18.47-14.65-30.17
		c-1.92-16.43,6.77-25.91,23.34-26.28c20.41-0.45,38.76,6.94,57.11,14.45c1.36,0.55,2.68,1.17,4.16,1.82
		c0.39-2.21-1.34-2.99-2.24-4.1c-10.36-12.9-19.77-26.36-25.37-42.13c-1.41-3.97-2.17-8.01-2.12-12.22
		c0.09-8.43,5.51-13.68,13.98-13.41c7.38,0.24,13.88,3.26,20.16,6.75c5.78,3.21,11.41,6.69,17.49,10.28
		c-1.57-10.58-3.16-20.71-4.55-30.88c-3.07-22.45-4.41-45.03-4.96-67.68c-1.61-66.58,10.32-131.1,29.54-194.48
		c14.8-48.81,33.63-96.04,57.01-141.4c2.28-4.42,5.31-8.45,7.92-12.7c1.98-3.23,3.47-2.96,5.64,0.08
		c13.74,19.24,27.84,38.22,40.75,58.04c12.46,19.13,27.31,36.54,40.28,55.3C429.42,277.16,446.01,300.69,461.09,326.26z"/>
	<path class="st2" d="M452.63,729.75c-11.73,0.22-21.74,0.58-31.63-1.26c-22.53-4.19-37.52-17.35-46-38.5
		c-7.08-17.66-9.75-36.1-8.52-54.83c3.21-48.86,15.81-95.17,41.87-136.98c16.6-26.63,37.24-50.04,64.29-66.69
		c28.25-17.4,56.7-16.82,84.57,1.45c41.04,26.92,70.24,63.59,89.8,108.37c8.51,19.47,12.97,39.79,14.17,60.85
		c0.71,12.34-1.88,24.04-8.23,34.92c-11.88,20.38-27.83,36.08-49.12,46.79c-33.54,16.86-68.1,30.9-104.42,40.43
		C483.54,728.48,467.21,729.17,452.63,729.75z"/>
	<path class="st1" d="M455.15,605.16c0.26-22.83,4.07-45.06,10.93-66.76c5.61-17.75,13.17-34.53,26.4-48.12
		c4.99-5.13,10.91-8.91,18.23-9.38c11.55-0.73,20.27,5.25,25,16.77c4.36,10.64,6.03,21.85,5.71,33.21
		c-1.21,42.71-11.15,83.58-26.77,123.18c-2.38,6.04-5.42,11.77-9.75,16.75c-11.82,13.59-28.98,12.29-38.29-3.13
		c-5.32-8.81-7.67-18.73-9.45-28.73c-0.99-5.55-1.61-11.21-1.93-16.84C454.9,616.48,455.15,610.81,455.15,605.16z"/>
</g>
</svg>
